<?xml version="1.0" encoding="utf-8"?>
<!DOCTYPE svg PUBLIC "-//W3C//DTD SVG 1.1//EN" "http://www.w3.org/Graphics/SVG/1.1/DTD/svg11.dtd">
<svg version="1.1" xmlns="http://www.w3.org/2000/svg" xmlns:xlink="http://www.w3.org/1999/xlink" x="0px" y="0px" viewBox="0 0 1000 1000" enable-background="new 0 0 1000 1000" xml:space="preserve">
<g><g transform="translate(0.000000,449.000000) scale(0.100000,-0.100000)"><path d="M253.1,3725.8c-34.4-24.9-82.3-68.9-103.4-97.6c-38.3-53.6-40.2-76.6-45.9-846c-5.7-761.8-3.8-796.2,32.5-869c23-42.1,67-95.7,101.5-120.6l63.2-44l4679.9-3.8l4679.9-5.7l76.6,44c49.8,26.8,91.9,70.8,120.6,128.2c42.1,84.2,42.1,93.8,42.1,842.2s0,758-42.1,842.2c-24.9,47.9-72.7,105.3-109.1,128.2l-65.1,44H5000H316.3L253.1,3725.8z"/><path d="M272.3,470c-57.4-30.6-97.6-70.8-128.2-128.2c-44-82.3-44-86.1-44-847.9c0-736.9,1.9-769.5,40.2-847.9c23-49.8,68.9-101.5,109.1-126.3l70.8-44l4612.9-5.7c2538-3.8,4649.3,0,4695.2,5.7c95.7,13.4,206.7,101.4,245,195.2c21.1,47.9,26.8,224,26.8,803.9c0,428.8-7.7,771.4-19.1,809.6c-21,78.5-116.7,179.9-197.1,208.6c-38.3,15.3-1468.1,21.1-4691.4,21.1H354.6L272.3,470z"/><path d="M279.9-2785.8c-72.7-32.5-135.9-109.1-162.7-201c-11.5-44-17.2-336.9-13.4-838.3c5.7-744.6,7.7-769.5,45.9-823c21.1-28.7,68.9-72.7,103.4-97.6l63.2-42.1H5000h4683.7l65.1,44c36.4,23,84.2,80.4,109.1,128.2c42.1,84.2,42.1,93.8,42.1,842.2c0,846-3.8,863.2-135.9,958.9l-65.1,45.9l-4679.9,3.8C1131.7-2760.9,329.7-2764.8,279.9-2785.8z"/></g></g>
</svg>